<svg width="42" height="42" viewBox="0 0 42 42" fill="none" xmlns="http://www.w3.org/2000/svg">
<path d="M21 9.625C22.6245 9.625 24.1824 10.2703 25.331 11.419C26.4797 12.5676 27.125 14.1255 27.125 15.75C27.125 17.3745 26.4797 18.9324 25.331 20.081C24.1824 21.2297 22.6245 21.875 21 21.875C19.3755 21.875 17.8176 21.2297 16.669 20.081C15.5203 18.9324 14.875 17.3745 14.875 15.75C14.875 14.1255 15.5203 12.5676 16.669 11.419C17.8176 10.2703 19.3755 9.625 21 9.625ZM8.75 14C9.73 14 10.64 14.2625 11.4275 14.735C11.165 17.2375 11.9 19.7225 13.405 21.665C12.53 23.345 10.78 24.5 8.75 24.5C7.35761 24.5 6.02226 23.9469 5.03769 22.9623C4.05312 21.9777 3.5 20.6424 3.5 19.25C3.5 17.8576 4.05312 16.5223 5.03769 15.5377C6.02226 14.5531 7.35761 14 8.75 14ZM33.25 14C34.6424 14 35.9777 14.5531 36.9623 15.5377C37.9469 16.5223 38.5 17.8576 38.5 19.25C38.5 20.6424 37.9469 21.9777 36.9623 22.9623C35.9777 23.9469 34.6424 24.5 33.25 24.5C31.22 24.5 29.47 23.345 28.595 21.665C30.1208 19.6952 30.829 17.2133 30.5725 14.735C31.36 14.2625 32.27 14 33.25 14ZM9.625 31.9375C9.625 28.315 14.7175 25.375 21 25.375C27.2825 25.375 32.375 28.315 32.375 31.9375V35H9.625V31.9375ZM0 35V32.375C0 29.9425 3.3075 27.895 7.7875 27.3C6.755 28.49 6.125 30.135 6.125 31.9375V35H0ZM42 35H35.875V31.9375C35.875 30.135 35.245 28.49 34.2125 27.3C38.6925 27.895 42 29.9425 42 32.375V35Z" fill="#246EE9"/>
</svg>
